Coordinates
version=1
nRows=32
nColumns=22
inDegrees=yes

Units are S.I. units (second, meters, Newtons, ...)
If the header above contains a line with 'inDegrees', this indicates whether rotational values are in degrees (yes) or radians (no).

endheader
time	pelvis_tilt	pelvis_list	pelvis_rotation	pelvis_tx	pelvis_ty	pelvis_tz	hip_flexion_r	hip_adduction_r	hip_rotation_r	knee_angle_r	ankle_angle_r	subtalar_angle_r	hip_flexion_l	hip_adduction_l	hip_rotation_l	knee_angle_l	ankle_angle_l	subtalar_angle_l	lumbar_extension	lumbar_bending	lumbar_rotation
      4.42000000	     -6.18093841	      1.22218633	      2.72821838	     -0.96098785	      1.01407053	      0.37690937	      7.50375019	     -0.04765888	     -4.05200825	    -17.18285419	     13.68073790	      0.47817824	     25.54401958	     -4.66691596	     -4.98584955	    -32.57313030	     10.25292375	      8.35382223	     -4.61084871	     -7.15226586	      3.95651240
      4.43000000	     -6.12859383	      1.15499632	      2.49039158	     -0.96393462	      1.01438960	      0.37761766	      7.58786862	      0.07174157	     -3.83015407	    -17.07852296	     13.56735648	      0.55133027	     25.00919016	     -4.67998064	     -4.68688958	    -33.14404674	     10.23718912	      8.47754607	     -4.49619494	     -6.93892336	      4.03256221
      4.44000000	     -6.06530788	      1.08499681	      2.29255014	     -0.96672003	      1.01470752	      0.37817585	      7.64777767	      0.18559025	     -3.64113339	    -16.97749391	     13.45780904	      0.63480230	     24.40775856	     -4.65523646	     -4.35091401	    -33.56287581	     10.19901425	      8.61965596	     -4.38385430	     -6.71915241	      4.04371479
      4.45000000	     -5.99571229	      1.00418175	      2.13683849	     -0.96933788	      1.01503745	      0.37857904	      7.68722489	      0.30091337	     -3.49920903	    -16.88071340	     13.34248848	      0.73667224	     23.73794536	     -4.60408485	     -3.98638565	    -33.80532522	     10.14015148	      8.77470568	     -4.26691324	     -6.48040701	      3.98493094
      4.46000000	     -5.90424014	      0.91406676	      2.02114075	     -0.97183540	      1.01539093	      0.37884399	      7.69968413	      0.41468280	     -3.43763116	    -16.80284172	     13.22812117	      0.88276237	     23.00254027	     -4.53276619	     -3.59935299	    -33.89948066	     10.08471175	      8.95873632	     -4.17354473	     -6.23110191	      3.88420261
      4.47000000	     -5.83701500	      0.80066997	      1.94639168	     -0.97420115	      1.01572063	      0.37898447	      7.71884676	      0.54633506	     -3.41592838	    -16.71793525	     13.09183727	      1.04749109	     22.24677137	     -4.46084032	     -3.19792463	    -33.82709438	      9.99537107	      9.10682230	     -4.04136995	     -5.95530923	      3.72425808
      4.48000000	     -5.79827827	      0.66389470	      1.90715263	     -0.97645276	      1.01601253	      0.37903505	      7.75248409	      0.69728168	     -3.43196159	    -16.62715231	     12.92464181	      1.22271941	     21.48423080	     -4.40356616	     -2.80642837	    -33.60329419	      9.88867955	      9.22578896	     -3.86907404	     -5.65891634	      3.51314802
      4.49000000	     -5.72803999	      0.49656787	      1.89739842	     -0.97858782	      1.01632806	      0.37898354	      7.74679287	      0.86833215	     -3.53857103	    -16.54862831	     12.79768750	      1.47927646	     20.65559293	     -4.37746622	     -2.43296580	    -33.23942659	      9.82140971	      9.36980978	     -3.73136719	     -5.32786042	      3.28958182
      4.50000000	     -5.69010403	      0.30180850	      1.91322632	     -0.98064078	      1.01657337	      0.37886936	      7.75718859	      1.06262308	     -3.65083251	    -16.44532965	     12.65289483	      1.74290143	     19.83851045	     -4.39019420	     -2.10020135	    -32.75010540	      9.74461601	      9.48970985	     -3.55410252	     -4.97484349	      3.03020075
      4.51000000	     -5.66970180	      0.07556264	      1.94938269	     -0.98260834	      1.01674085	      0.37871346	      7.77058731	      1.28238554	     -3.79163316	    -16.31593554	     12.52161947	      2.00438247	     19.02586159	     -4.45723169	     -1.82809496	    -32.15662997	      9.67729394	      9.58437701	     -3.35383586	     -4.59737700	      2.76204291
      4.52000000	     -5.65803851	     -0.17871904	      2.00022322	     -0.98451853	      1.01682426	      0.37851220	      7.78093056	      1.52325692	     -3.94221064	    -16.16161958	     12.41803497	      2.27629782	     18.21600708	     -4.58168042	     -1.63309892	    -31.47425007	      9.63473044	      9.65184660	     -3.14791676	     -4.19588645	      2.47518529
      4.53000000	     -5.67042912	     -0.46273777	      2.06332918	     -0.98640805	      1.01678939	      0.37827961	      7.81397619	      1.79046345	     -4.06647648	    -15.99616771	     12.32352170	      2.52277901	     17.43390919	     -4.76620091	     -1.50781168	    -30.71986222	      9.61651759	      9.67905506	     -2.92325609	     -3.77191318	      2.17913678
      4.54000000	     -5.66541377	     -0.77795802	      2.13129320	     -0.98823515	      1.01667721	      0.37801271	      7.82656511	      2.08048755	     -4.23933027	    -15.82339004	     12.28165176	      2.80047558	     16.63950808	     -5.02690496	     -1.50369058	    -29.91119852	      9.67278236	      9.65925403	     -2.72468122	     -3.32041880	      1.88847403
      4.55000000	     -5.66880922	     -1.10547053	      2.19794722	     -0.99001080	      1.01645606	      0.37773208	      7.85555322	      2.37898376	     -4.41496329	    -15.66415388	     12.26409238	      3.07463437	     15.85915286	     -5.34349838	     -1.62747897	    -29.05078710	      9.78522978	      9.58464085	     -2.52133545	     -2.86997204	      1.60576721
      4.56000000	     -5.67346855	     -1.44593418	      2.26115400	     -0.99178035	      1.01614493	      0.37741485	      7.89808869	      2.68699230	     -4.59003553	    -15.52167768	     12.26079590	      3.33560696	     15.09288751	     -5.71190655	     -1.87136991	    -28.14878959	      9.96271405	      9.45204182	     -2.33315083	     -2.41154591	      1.32736333
      4.57000000	     -5.64750953	     -1.77091439	      2.32054624	     -0.99347304	      1.01582101	      0.37704961	      7.91101591	      2.97624021	     -4.74836001	    -15.39263854	     12.26923738	      3.66891258	     14.28338340	     -6.09406729	     -2.21398386	    -27.17382028	     10.14130675	      9.19960828	     -2.18458382	     -1.98027601	      1.05721275
      4.58000000	     -5.65337962	     -2.12573923	      2.36766096	     -0.99518069	      1.01536476	      0.37664857	      7.97850508	      3.29870437	     -4.89189700	    -15.29337094	     12.26810570	      3.85049077	     13.53158048	     -6.53588121	     -2.65856654	    -26.17717871	     10.41572597	      8.96896265	     -2.01657668	     -1.51796646	      0.79322682
      4.59000000	     -5.63973672	     -2.45187341	      2.40732185	     -0.99682140	      1.01490036	      0.37615215	      8.04100224	      3.58734250	     -5.03403235	    -15.23410041	     12.27660936	      4.00510260	     12.74614733	     -6.95720647	     -3.17480715	    -25.10142331	     10.68705729	      8.68367263	     -1.87757801	     -1.08752031	      0.54356259
      4.60000000	     -5.63332240	     -2.76958052	      2.43717625	     -0.99844741	      1.01440790	      0.37557127	      8.12191680	      3.86806931	     -5.14705423	    -15.19530671	     12.27342337	      4.08827133	     11.96297446	     -7.36589456	     -3.71067154	    -23.94626299	     10.96691866	      8.42427420	     -1.74534752	     -0.66483995	      0.30631665
      4.61000000	     -5.62904240	     -3.05623327	      2.46623355	     -1.00002466	      1.01391965	      0.37487787	      8.20368004	      4.11603297	     -5.23766136	    -15.16034926	     12.27370544	      4.11685698	     11.17019979	     -7.72359700	     -4.23988686	    -22.69535739	     11.23278131	      8.18256288	     -1.61887235	     -0.27227859	      0.06248839
      4.62000000	     -5.61328584	     -3.29691430	      2.49966016	     -1.00157359	      1.01348532	      0.37405093	      8.28430497	      4.31122783	     -5.33545968	    -15.15139172	     12.26358056	      4.09630903	     10.35094369	     -8.00021059	     -4.71767827	    -21.33667165	     11.44293498	      7.94200724	     -1.52000596	      0.07389565	     -0.17753176
      4.63000000	     -5.59856742	     -3.49259305	      2.54758226	     -1.00309539	      1.01310751	      0.37309180	      8.36599463	      4.45480626	     -5.43614147	    -15.14655156	     12.24532786	      4.03250802	      9.53389655	     -8.18946285	     -5.10766078	    -19.89311953	     11.58781830	      7.71498883	     -1.43219531	      0.37450848	     -0.42498066
      4.64000000	     -5.59135309	     -3.64071087	      2.61822318	     -1.00458964	      1.01280381	      0.37198343	      8.44922164	      4.54131872	     -5.53883358	    -15.13605657	     12.20979862	      3.94958598	      8.74190540	     -8.28385567	     -5.38975932	    -18.39688364	     11.65094748	      7.50940745	     -1.34556139	      0.62661070	     -0.68488977
      4.65000000	     -5.57925867	     -3.73907916	      2.71910562	     -1.00605820	      1.01260383	      0.37078095	      8.51078453	      4.57130666	     -5.66056580	    -15.10079402	     12.17983308	      3.84841800	      7.98431904	     -8.29136582	     -5.58241046	    -16.89720194	     11.60980855	      7.26945057	     -1.27786098	      0.81974204	     -0.97497096
      4.66000000	     -5.55368563	     -3.80237609	      2.84465375	     -1.00751065	      1.01252626	      0.36947776	      8.55165045	      4.55790845	     -5.79682165	    -15.06247778	     12.13953459	      3.74580737	      7.26783625	     -8.23114010	     -5.69003586	    -15.44090477	     11.49441789	      6.96059612	     -1.23805236	      0.97527812	     -1.26294528
      4.67000000	     -5.54242429	     -3.80041673	      3.01401204	     -1.00893460	      1.01256982	      0.36808435	      8.57439964	      4.46760679	     -5.95266185	    -14.97318043	     12.07654398	      3.67638309	      6.63742840	     -8.07752980	     -5.72615469	    -14.06738195	     11.24630777	      6.68287847	     -1.18997627	      1.04964917	     -1.58865487
      4.68000000	     -5.51185718	     -3.76288100	      3.21431211	     -1.01033830	      1.01276157	      0.36662896	      8.55977035	      4.33467848	     -6.12379568	    -14.86456171	     12.00319610	      3.62962234	      6.06294386	     -7.87418630	     -5.70977727	    -12.80776908	     10.92648671	      6.36410161	     -1.17346752	      1.08080571	     -1.91193792
      4.69000000	     -5.47338514	     -3.69329878	      3.43990412	     -1.01174034	      1.01307633	      0.36514036	      8.51950115	      4.16313507	     -6.31688502	    -14.73146862	     11.92103204	      3.61406240	      5.55405415	     -7.63390052	     -5.64989940	    -11.66864807	     10.54706356	      6.04804370	     -1.17618316	      1.07030621	     -2.23032891
      4.70000000	     -5.44062401	     -3.60361106	      3.68611541	     -1.01315369	      1.01347883	      0.36364249	      8.46926377	      3.96733837	     -6.52556412	    -14.57408459	     11.82775148	      3.63111843	      5.12656521	     -7.37706615	     -5.55900059	    -10.66220690	     10.13319899	      5.80205086	     -1.18176894	      1.02971574	     -2.53627593
      4.71000000	     -5.41297385	     -3.50717514	      3.94552250	     -1.01458009	      1.01393556	      0.36215485	      8.41460667	      3.76238096	     -6.75060155	    -14.40128366	     11.72554598	      3.67374065	      4.76878965	     -7.12464537	     -5.43817791	     -9.77631557	      9.70977824	      5.65074926	     -1.18856889	      0.97294092	     -2.81865624
      4.72000000	     -5.39103605	     -3.41755897	      4.20813885	     -1.01602973	      1.01441280	      0.36068944	      8.36253085	      3.56376650	     -6.98811513	    -14.22080906	     11.62262324	      3.73347533	      4.47752035	     -6.89403949	     -5.29531181	     -9.00993870	      9.31060178	      5.59974035	     -1.19596102	      0.91845902	     -3.06384857
      4.73000000	     -5.40160697	     -3.34962170	      4.45148517	     -1.01754741	      1.01484534	      0.35929941	      8.36224375	      3.39068202	     -7.19494887	    -14.06337246	     11.49183929	      3.79068964	      4.27994603	     -6.70324507	     -5.14073963	     -8.35964612	      8.93250650	      5.65793615	     -1.17703520	      0.87935849	     -3.26543421
